<svg xmlns="http://www.w3.org/2000/svg" viewBox="0 0 64 64">
  <!-- Las letras van como trazado y no como <text>: dibujadas con una etiqueta
       de texto dependían de que el sistema tuviera Georgia, y donde no está
       el icono cambiaba de forma. Generado desde Georgia a 34px. -->
  <rect width="64" height="64" rx="12" fill="#000"/>
  <path fill="#fff" d="M31.16 36.99L30.66 44.00L12.25 44.00L12.25 42.82Q12.65 42.79 13.41 42.71Q14.16 42.62 14.46 42.49Q14.96 42.27 15.18 41.86Q15.41 41.44 15.41 40.80L15.41 23.93Q15.41 23.36 15.22 22.93Q15.02 22.50 14.46 22.24Q14.08 22.04 13.39 21.85Q12.70 21.65 12.25 21.62L12.25 20.44L22.20 20.44L22.20 21.62Q21.73 21.64 20.99 21.79Q20.25 21.94 19.92 22.05Q19.36 22.25 19.15 22.73Q18.94 23.21 18.94 23.76L18.94 39.58Q18.94 40.68 19.05 41.29Q19.16 41.89 19.56 42.22Q19.94 42.52 20.69 42.61Q21.45 42.71 22.81 42.71Q23.43 42.71 24.09 42.67Q24.75 42.64 25.35 42.54Q25.93 42.44 26.42 42.27Q26.91 42.09 27.14 41.83Q27.82 41.06 28.73 39.51Q29.63 37.96 29.98 36.99ZM49.47 33.03Q50.50 33.72 51.18 34.85Q51.86 35.98 51.86 37.59Q51.86 39.24 51.15 40.45Q50.44 41.66 49.29 42.44Q48.18 43.20 46.78 43.60Q45.37 44.00 43.88 44.00L32.72 44.00L32.72 42.82Q33.12 42.79 33.88 42.68Q34.65 42.57 34.98 42.42Q35.49 42.19 35.71 41.80Q35.93 41.41 35.93 40.80L35.93 23.86Q35.93 23.30 35.74 22.87Q35.54 22.43 34.98 22.17Q34.48 21.92 33.87 21.79Q33.25 21.65 32.84 21.62L32.84 20.44L43.71 20.44Q44.97 20.44 46.13 20.69Q47.28 20.94 48.33 21.57Q49.31 22.15 49.94 23.15Q50.57 24.14 50.57 25.57Q50.57 26.82 50.12 27.79Q49.67 28.76 48.86 29.46Q48.10 30.12 47.11 30.58Q46.12 31.03 44.97 31.28L44.97 31.43Q45.99 31.55 47.24 31.94Q48.49 32.33 49.47 33.03ZM45.47 29.47Q46.09 28.76 46.33 27.91Q46.57 27.07 46.57 25.90Q46.57 23.96 45.51 22.86Q44.44 21.75 42.15 21.75Q41.62 21.75 40.82 21.78Q40.01 21.80 39.46 21.82L39.46 30.87L41.57 30.87Q42.93 30.87 43.90 30.52Q44.87 30.17 45.47 29.47ZM47.76 36.99Q47.76 34.90 46.36 33.56Q44.96 32.21 42.35 32.21Q41.29 32.21 40.56 32.24Q39.83 32.26 39.46 32.28L39.46 40.58Q39.46 41.63 40.31 42.16Q41.16 42.69 42.67 42.69Q45.14 42.69 46.45 41.24Q47.76 39.80 47.76 36.99Z"/>
</svg>
